<?xml version="1.0" standalone="no"?>
<!DOCTYPE svg PUBLIC "-//W3C//DTD SVG 20010904//EN"
 "http://www.w3.org/TR/2001/REC-SVG-20010904/DTD/svg10.dtd">
<svg version="1.0" xmlns="http://www.w3.org/2000/svg"
 width="171.000000pt" height="144.000000pt" viewBox="0 0 171.000000 144.000000"
 preserveAspectRatio="xMidYMid meet">

<g transform="translate(0.000000,144.000000) scale(0.100000,-0.100000)"
fill="#000000" stroke="none">
<path d="M769 1244 c-53 -16 -117 -76 -136 -126 -19 -53 -15 -124 8 -170 26
-50 32 -57 87 -91 33 -22 54 -27 101 -27 125 0 211 86 211 209 0 99 -58 178
-152 206 -61 18 -60 18 -119 -1z"/>
<path d="M1096 1216 c3 -7 21 -26 40 -41 28 -22 34 -34 34 -66 0 -21 5 -41 10
-44 6 -3 10 -24 10 -45 0 -39 0 -39 -42 -42 -35 -2 -43 -7 -43 -23 0 -18 8
-20 99 -23 64 -2 103 1 112 9 22 18 -2 39 -44 39 -45 0 -61 22 -62 82 0 26 -4
50 -10 53 -5 3 -10 17 -10 30 0 14 -14 35 -35 54 -37 32 -68 41 -59 17z"/>
<path d="M341 1090 c-45 -11 -86 -43 -86 -66 0 -17 10 -20 90 -24 78 -4 87 -7
68 -18 -13 -7 -31 -9 -45 -4 -13 4 -43 7 -68 6 -44 -2 -45 -2 -42 -32 2 -17
-2 -33 -8 -37 -7 -4 -7 -12 0 -26 10 -17 23 -19 163 -19 140 0 153 2 164 20 8
12 9 21 3 25 -13 8 -13 45 0 45 6 0 10 5 10 10 0 6 -28 10 -62 10 -35 0 -70 5
-78 10 -10 7 5 10 53 10 l68 0 -3 28 c-6 51 -132 86 -227 62z m169 -159 c0
-13 -27 -21 -45 -15 -25 10 -17 24 15 24 17 0 30 -4 30 -9z"/>
<path d="M1123 894 c-3 -8 -3 -45 1 -81 7 -65 7 -66 -16 -57 -13 4 -134 10
-269 11 -229 3 -249 2 -293 -17 -63 -27 -80 -27 -66 0 6 12 8 30 5 40 -6 18
-2 20 38 20 43 0 79 21 63 38 -9 8 -301 13 -328 5 -14 -3 -16 -8 -8 -24 8 -14
21 -19 55 -19 47 0 56 -9 30 -30 -8 -7 -15 -21 -15 -31 0 -11 -4 -19 -10 -19
-5 0 -10 -8 -10 -18 0 -10 -4 -22 -9 -28 -4 -5 -25 -51 -46 -101 -34 -83 -36
-96 -25 -122 12 -30 59 -57 83 -48 7 2 51 34 97 69 78 59 154 108 166 108 8 0
-2 -543 -10 -568 l-8 -22 277 0 277 0 -6 68 c-11 121 -18 514 -9 522 9 9 79
-35 195 -122 41 -32 83 -58 93 -58 9 0 30 14 47 30 24 25 29 37 25 59 -6 26
-55 144 -77 183 -6 10 -10 24 -10 32 0 8 -10 34 -21 58 -36 71 -41 84 -39 99
6 37 1 39 -85 39 -68 0 -87 -3 -92 -16z"/>
</g>
</svg>
